<svg width="34" height="34" viewBox="0 0 34 34" fill="none" xmlns="http://www.w3.org/2000/svg">
<circle cx="17" cy="17" r="17" fill="#212121"/>
<g clip-path="url(#clip0_41_63)">
<path d="M17.0027 12.8921C14.734 12.8921 12.8973 14.7308 12.8973 16.9974C12.8973 19.2661 14.736 21.1028 17.0027 21.1028C19.2713 21.1028 21.108 19.2641 21.108 16.9974C21.108 14.7288 19.2693 12.8921 17.0027 12.8921ZM17.0027 19.6621C15.53 19.6621 14.338 18.4694 14.338 16.9974C14.338 15.5254 15.5307 14.3328 17.0027 14.3328C18.4747 14.3328 19.6673 15.5254 19.6673 16.9974C19.668 18.4694 18.4753 19.6621 17.0027 19.6621Z" fill="white"/>
<path d="M20.2987 9.05062C18.8267 8.98196 15.1807 8.98529 13.7074 9.05062C12.4127 9.11129 11.2707 9.42396 10.35 10.3446C8.81136 11.8833 9.00803 13.9566 9.00803 16.9973C9.00803 20.1093 8.8347 22.1346 10.35 23.65C11.8947 25.194 13.998 24.992 17.0027 24.992C20.0854 24.992 21.1494 24.994 22.2394 24.572C23.7214 23.9966 24.84 22.672 24.9494 20.2926C25.0187 18.82 25.0147 15.1746 24.9494 13.7013C24.8174 10.8926 23.31 9.18929 20.2987 9.05062ZM22.6287 22.632C21.62 23.6406 20.2207 23.5506 16.9834 23.5506C13.65 23.5506 12.3134 23.6 11.338 22.622C10.2147 21.504 10.418 19.7086 10.418 16.9866C10.418 13.3033 10.04 10.6506 13.7367 10.4613C14.586 10.4313 14.836 10.4213 16.974 10.4213L17.004 10.4413C20.5567 10.4413 23.344 10.0693 23.5114 13.7653C23.5494 14.6086 23.558 14.862 23.558 16.9966C23.5574 20.2913 23.62 21.636 22.6287 22.632Z" fill="white"/>
<path d="M21.2706 13.6893C21.8004 13.6893 22.2299 13.2598 22.2299 12.73C22.2299 12.2001 21.8004 11.7706 21.2706 11.7706C20.7408 11.7706 20.3113 12.2001 20.3113 12.73C20.3113 13.2598 20.7408 13.6893 21.2706 13.6893Z" fill="white"/>
</g>
<defs>
<clipPath id="clip0_41_63">
<rect width="16" height="16" fill="white" transform="translate(9 9)"/>
</clipPath>
</defs>
</svg>
