<svg width="34" height="34" viewBox="0 0 34 34" fill="none" xmlns="http://www.w3.org/2000/svg">
<circle cx="17" cy="17" r="17" fill="#212121"/>
<g clip-path="url(#clip0_41_44)">
<path d="M17 19.8108C16.9013 19.8108 16.8027 19.7797 16.7195 19.7176L11.8125 16.0526V23.0937H22.1875V16.0526L17.2805 19.7176C17.1973 19.7797 17.0987 19.8108 17 19.8108Z" fill="white"/>
<path d="M10.875 15.3523L9 13.9519V21.6874C9 22.4628 9.63084 23.0937 10.4062 23.0937H10.875V15.3523Z" fill="white"/>
<path d="M23.125 15.3523V23.0937H23.5938C24.3692 23.0937 25 22.4628 25 21.6874V13.9519L23.125 15.3523Z" fill="white"/>
<path d="M22.813 10.9062H11.1868L16.9999 15.2433L22.813 10.9062Z" fill="white"/>
<path d="M24.1978 11.0428L17.2803 16.2038C17.1972 16.2659 17.0986 16.2969 17 16.2969C16.9014 16.2969 16.8028 16.2659 16.7197 16.2038L9.80219 11.0428C9.32825 11.2693 9 11.7532 9 12.3125V12.8388C9.06619 12.8521 9.13059 12.8793 9.18825 12.9224L17 18.7569L24.8118 12.9224C24.8694 12.8794 24.9338 12.8521 25 12.8388V12.3125C25 11.7532 24.6717 11.2692 24.1978 11.0428Z" fill="white"/>
</g>
<defs>
<clipPath id="clip0_41_44">
<rect width="16" height="16" fill="white" transform="translate(9 9)"/>
</clipPath>
</defs>
</svg>
