<svg width="129" height="56" viewBox="0 0 129 56" fill="none" xmlns="http://www.w3.org/2000/svg">
<path fill-rule="evenodd" clip-rule="evenodd" d="M0 0H56.0498V55.9993H0V0ZM10.9431 35.1425C14.7843 35.1425 17.8048 32.0857 17.8048 28.2869C17.8048 24.4882 14.7843 21.4313 10.9431 21.4313C7.10184 21.4313 4.08132 24.4882 4.08132 28.2869C4.08132 32.0857 7.10184 35.1425 10.9431 35.1425ZM10.9431 34.1719C7.65458 34.1719 5.09188 31.5501 5.09188 28.2869C5.09188 25.0237 7.66016 22.4019 10.9431 22.4019C14.2316 22.4019 16.7943 25.0237 16.7943 28.2869C16.7943 31.5501 14.226 34.1719 10.9431 34.1719ZM24.7113 21.6377H19.7143V34.9305H24.7113C28.3794 34.9305 30.9812 31.9518 30.9812 28.2869C30.9812 24.6221 28.3794 21.6433 24.7113 21.6433V21.6377ZM24.7113 33.9822H20.7193V22.5916H24.7113C27.849 22.5916 29.993 25.1352 29.993 28.2869C29.993 31.4386 27.8435 33.9822 24.7113 33.9822ZM34.2809 33.9822V28.7053H40.361V27.757H34.2809V22.5916H40.8356V21.6433H33.2703V34.9361H40.9305V33.9878H34.2809V33.9822ZM47.5913 35.1425C50.2321 35.1425 51.9629 33.6977 51.9629 31.4944C51.9629 29.1962 49.9083 28.4543 47.5522 27.6789C45.6539 27.0541 44.3027 26.5577 44.3027 24.9623C44.3027 23.4785 45.4641 22.3964 47.3065 22.3964C49.2048 22.3964 50.2321 23.4953 50.729 24.6946L51.5832 24.2204C50.9356 22.6809 49.4951 21.4313 47.3065 21.4313C45.0453 21.4313 43.2754 22.8147 43.2754 25.0014C43.2754 27.3163 45.2686 27.9466 47.4963 28.6662C49.5286 29.3133 50.9356 29.9213 50.9356 31.5167C50.9356 33.0339 49.8134 34.1775 47.5913 34.1775C45.4082 34.1775 44.0571 33.0953 43.5993 31.4999L42.7227 32.0131C43.3313 33.893 45.0956 35.1481 47.5857 35.1481L47.5913 35.1425Z" fill="white"/>
<path d="M67.4563 7.87673V10.5821H65.2342V7.87673H63.6206V14.9387H65.2342V12.1329H67.4563V14.9387H69.0698V7.87673H67.4563ZM74.8764 14.9387H76.6406L74.2399 7.87673H72.1797L69.7789 14.9387H71.5432L71.8949 13.8286H74.519L74.8708 14.9387H74.8764ZM72.3807 12.317L73.207 9.7231L74.0333 12.317H72.3751H72.3807ZM81.7325 11.2794C82.1178 10.9447 82.3467 10.4817 82.3467 9.89603C82.3467 8.67441 81.3473 7.87673 80.1134 7.87673H77.3441V14.9387H80.3144C81.5762 14.9387 82.5979 14.1243 82.5979 12.8692C82.5979 12.1552 82.2574 11.6085 81.7269 11.2738L81.7325 11.2794ZM80.119 9.39399C80.4931 9.39399 80.7331 9.65617 80.7331 10.0187C80.7331 10.3813 80.4819 10.6435 80.119 10.6435H78.9688V9.39399H80.119ZM80.32 13.427H78.9688V12.0771H80.32C80.722 12.0771 80.9844 12.3616 80.9844 12.7521C80.9844 13.1481 80.722 13.427 80.32 13.427ZM86.8914 7.87673V10.9113C86.5285 11.073 86.1656 11.1455 85.7301 11.1455C85.1774 11.1455 84.7698 10.8108 84.7698 10.1582V7.87673H83.1562V10.3981C83.1562 11.8819 84.2896 12.6963 85.691 12.6963C86.1154 12.6963 86.5006 12.6238 86.8914 12.4731V14.9331H88.505V7.87115H86.8914V7.87673ZM94.3115 14.9387H96.0758L93.675 7.87673H91.6148L89.214 14.9387H90.9783L91.3301 13.8286H93.9542L94.3059 14.9387H94.3115ZM91.8158 12.317L92.6421 9.7231L93.4684 12.317H91.8102H91.8158ZM96.3773 14.9387C97.6782 15.0781 99.1633 14.5984 99.1633 12.0715V9.42746H100.822V14.9331H102.435V7.87115H97.5498V12.1273C97.5498 13.3099 97.1031 13.5274 96.3773 13.4159V14.9275V14.9387ZM106.421 10.0968H105.361V7.87673H103.747V14.9387H106.421C107.817 14.9387 108.895 13.8565 108.895 12.5178C108.895 11.1734 107.817 10.0968 106.421 10.0968ZM106.421 13.427H105.361V11.6085H106.421C106.918 11.6085 107.281 12.0046 107.281 12.5178C107.281 13.031 106.918 13.427 106.421 13.427ZM113.641 7.87673V10.5821H111.418V7.87673H109.805V14.9387H111.418V12.1329H113.641V14.9387H115.254V7.87673H113.641ZM120.508 14.9387H122.121V7.87673H120.91L118.185 11.7089V7.87673H116.572V14.9387H117.783L120.508 11.1065V14.9387ZM124.701 7.27986H127.733V5.96899H124.701V7.27986ZM127.375 14.9387H128.989V7.87673H127.777L125.053 11.7089V7.87673H123.439V14.9387H124.651L127.375 11.1065V14.9387ZM68.9637 19.1223H63.615V26.1843H65.2286V20.6786H67.3502V26.1843H68.9637V19.1223ZM72.9501 19.1223H70.2758V26.1843H71.8893V23.9642H72.9501C74.3459 23.9642 75.4235 22.882 75.4235 21.5433C75.4235 20.1989 74.3459 19.1223 72.9501 19.1223ZM72.9501 22.4525H71.8893V20.634H72.9501C73.4471 20.634 73.81 21.0301 73.81 21.5433C73.81 22.0564 73.4471 22.4525 72.9501 22.4525ZM79.6556 26.3237C81.6823 26.3237 83.3293 24.7284 83.3293 22.6533C83.3293 20.5726 81.6823 18.9829 79.6556 18.9829C77.6233 18.9829 75.9818 20.5782 75.9818 22.6533C75.9818 24.734 77.6289 26.3237 79.6556 26.3237ZM79.6556 24.7507C78.5054 24.7507 77.5954 23.914 77.5954 22.6533C77.5954 21.3926 78.5054 20.5559 79.6556 20.5559C80.8057 20.5559 81.7158 21.3926 81.7158 22.6533C81.7158 23.914 80.8057 24.7507 79.6556 24.7507ZM87.7121 26.3237C89.0019 26.3237 90.1353 25.6878 90.7438 24.6893L89.348 23.8805C89.0465 24.4272 88.4268 24.7507 87.7121 24.7507C86.4615 24.7507 85.6519 23.914 85.6519 22.6533C85.6519 21.3926 86.4615 20.5559 87.7121 20.5559C88.4268 20.5559 89.0354 20.8794 89.348 21.4261L90.7438 20.6173C90.1297 19.6188 88.9963 18.9829 87.7121 18.9829C85.5794 18.9829 84.0384 20.5782 84.0384 22.6533C84.0384 24.734 85.5849 26.3237 87.7121 26.3237ZM96.3438 19.1223H91.0956V20.6731H92.9157V26.1787H94.5292V20.6731H96.3494V19.1223H96.3438ZM97.1534 19.1223V26.1843H98.7669V19.1223H97.1534ZM102.759 19.1223H100.085V26.1843H101.698V23.9642H102.759C104.155 23.9642 105.232 22.882 105.232 21.5433C105.232 20.1989 104.155 19.1223 102.759 19.1223ZM102.759 22.4525H101.698V20.634H102.759C103.256 20.634 103.619 21.0301 103.619 21.5433C103.619 22.0564 103.256 22.4525 102.759 22.4525ZM66.9873 37.5749C69.014 37.5749 70.661 35.9796 70.661 33.9045C70.661 31.8238 69.014 30.234 66.9873 30.234C64.955 30.234 63.3135 31.8294 63.3135 33.9045C63.3135 35.9851 64.9606 37.5749 66.9873 37.5749ZM66.9873 36.0019C65.8371 36.0019 64.9271 35.1651 64.9271 33.9045C64.9271 32.6438 65.8371 31.8071 66.9873 31.8071C68.1374 31.8071 69.0475 32.6438 69.0475 33.9045C69.0475 35.1651 68.1374 36.0019 66.9873 36.0019ZM70.7615 37.4355C72.0624 37.5749 73.5476 37.0952 73.5476 34.5683V31.9242H75.2058V37.4299H76.8193V30.3679H71.934V34.6241C71.934 35.8066 71.4873 36.0242 70.7615 35.9126V37.4243V37.4355ZM79.7505 35.8792V34.6296H82.2741V33.0956H79.7505V31.9242H82.5253V30.3735H78.1314V37.4355H82.5756V35.8792H79.7505ZM89.3034 37.4355L86.8188 33.8152L89.2029 30.3735H87.366L85.2053 33.4415V30.3735H83.5917V37.4355H85.2053V34.1667L87.4665 37.4355H89.3034ZM92.7761 37.5749C94.0658 37.5749 95.1992 36.939 95.8078 35.9405L94.412 35.1317C94.1105 35.6783 93.4908 36.0019 92.7761 36.0019C91.5255 36.0019 90.7159 35.1651 90.7159 33.9045C90.7159 32.6438 91.5255 31.8071 92.7761 31.8071C93.4908 31.8071 94.0993 32.1306 94.412 32.6773L95.8078 31.8684C95.1936 30.87 94.0603 30.234 92.7761 30.234C90.6433 30.234 89.1024 31.8294 89.1024 33.9045C89.1024 35.9851 90.6489 37.5749 92.7761 37.5749ZM100.604 37.4355H102.217V30.3735H101.006L98.2812 34.2057V30.3735H96.6676V37.4355H97.8792L100.604 33.6033V37.4355ZM107.371 30.3735V33.0789H105.149V30.3735H103.535V37.4355H105.149V34.6296H107.371V37.4355H108.984V30.3735H107.371ZM69.1759 47.1303V41.6247H64.4413V44.7931C64.4413 45.9924 64.2068 46.6673 63.8886 47.1359H63.174V50.0421H64.7875V48.6922H68.3217V50.0421H69.9352V47.1359H69.1759V47.1303ZM65.6026 47.1303C65.8539 46.6785 66.0549 45.9701 66.0549 44.8098V43.1364H67.5568V47.1303H65.5971H65.6026ZM75.4347 48.6866H77.199L74.7982 41.6247H72.738L70.3372 48.6866H72.1015L72.4532 47.5766H75.0773L75.4291 48.6866H75.4347ZM72.939 46.0649L73.7653 43.471L74.5916 46.0649H72.9334H72.939ZM80.5824 41.6247H77.908V48.6866H79.5216V46.4665H80.5824C81.9782 46.4665 83.0558 45.3844 83.0558 44.0456C83.0558 42.7013 81.9782 41.6247 80.5824 41.6247ZM80.5824 44.9548H79.5216V43.1364H80.5824C81.0793 43.1364 81.4422 43.5324 81.4422 44.0456C81.4422 44.5588 81.0793 44.9548 80.5824 44.9548ZM83.9658 41.6247V48.6866H85.5794V41.6247H83.9658ZM86.7407 41.223C87.1538 41.223 87.5 40.8828 87.5 40.4644C87.5 40.0516 87.1594 39.7058 86.7407 39.7058C86.3275 39.7058 85.9814 40.0461 85.9814 40.4644C85.9814 40.8772 86.3219 41.223 86.7407 41.223ZM88.6613 41.223C89.0744 41.223 89.4206 40.8828 89.4206 40.4644C89.4206 40.0516 89.08 39.7058 88.6613 39.7058C88.2481 39.7058 87.902 40.0461 87.902 40.4644C87.902 40.8772 88.2426 41.223 88.6613 41.223ZM86.897 41.6247V48.6866H88.5105V41.6247H86.897Z" fill="white"/>
</svg>
