<svg width="58" height="58" viewBox="0 0 58 58" fill="none" xmlns="http://www.w3.org/2000/svg">
<g filter="url(#filter0_d_56_125)">
<circle cx="29" cy="25" r="24.5" stroke="white"/>
<g clip-path="url(#clip0_56_125)">
<path d="M34.7964 27.8458C33.878 27.8458 32.9763 27.7021 32.1218 27.4198C31.7031 27.277 31.1884 27.408 30.9329 27.6704L29.2463 28.9436C27.2903 27.8995 26.0854 26.6951 25.0556 24.7538L26.2913 23.1111C26.6124 22.7905 26.7275 22.3221 26.5896 21.8827C26.306 21.0237 26.1619 20.1224 26.1619 19.2037C26.162 18.54 25.622 18 24.9583 18H22.2036C21.54 18 21 18.54 21 19.2036C21 26.8111 27.189 33 34.7964 33C35.4601 33 36 32.46 36 31.7964V29.0494C36 28.3857 35.46 27.8458 34.7964 27.8458Z" fill="white"/>
</g>
</g>
<defs>
<filter id="filter0_d_56_125" x="0" y="0" width="58" height="58" filterUnits="userSpaceOnUse" color-interpolation-filters="sRGB">
<feFlood flood-opacity="0" result="BackgroundImageFix"/>
<feColorMatrix in="SourceAlpha" type="matrix" values="0 0 0 0 0 0 0 0 0 0 0 0 0 0 0 0 0 0 127 0" result="hardAlpha"/>
<feOffset dy="4"/>
<feGaussianBlur stdDeviation="2"/>
<feComposite in2="hardAlpha" operator="out"/>
<feColorMatrix type="matrix" values="0 0 0 0 0 0 0 0 0 0 0 0 0 0 0 0 0 0 0.25 0"/>
<feBlend mode="normal" in2="BackgroundImageFix" result="effect1_dropShadow_56_125"/>
<feBlend mode="normal" in="SourceGraphic" in2="effect1_dropShadow_56_125" result="shape"/>
</filter>
<clipPath id="clip0_56_125">
<rect width="15" height="15" fill="white" transform="translate(21 18)"/>
</clipPath>
</defs>
</svg>
