<svg width="34" height="34" viewBox="0 0 34 34" fill="none" xmlns="http://www.w3.org/2000/svg">
<circle cx="17" cy="17" r="17" fill="#212121"/>
<path d="M24.01 13.0122C23.0968 13.0122 22.2543 12.7097 21.5778 12.1994C20.8018 11.6144 20.2443 10.7563 20.0475 9.76721C19.9987 9.52283 19.9725 9.27064 19.97 9.01221H17.3615V16.1397L17.3584 20.0438C17.3584 21.0875 16.6787 21.9725 15.7365 22.2838C15.4631 22.3741 15.1678 22.4169 14.8603 22.4C14.4678 22.3785 14.1 22.26 13.7803 22.0688C13.1 21.6619 12.6387 20.9238 12.6262 20.0794C12.6065 18.7597 13.6734 17.6838 14.9922 17.6838C15.2525 17.6838 15.5025 17.7263 15.7365 17.8035V15.8553V15.155C15.4897 15.1185 15.2384 15.0994 14.9843 15.0994C13.5409 15.0994 12.1909 15.6994 11.2259 16.7803C10.4965 17.5972 10.059 18.6394 9.99154 19.7322C9.9031 21.1678 10.4284 22.5325 11.4472 23.5394C11.5968 23.6872 11.754 23.8244 11.9184 23.951C12.7918 24.6232 13.8597 24.9875 14.9843 24.9875C15.2384 24.9875 15.4897 24.9688 15.7365 24.9322C16.7872 24.7766 17.7565 24.2957 18.5215 23.5394C19.4615 22.6103 19.9809 21.3769 19.9865 20.0641L19.9731 14.2341C20.4215 14.58 20.9118 14.8663 21.4381 15.0885C22.2565 15.4338 23.1243 15.6088 24.0175 15.6085V13.7144V13.0116C24.0181 13.0122 24.0106 13.0122 24.01 13.0122Z" fill="white"/>
</svg>
